<?xml version="1.0" encoding="UTF-8" standalone="no"?>
<!-- Created with Inkscape (http://www.inkscape.org/) -->

<svg
   width="32"
   height="32"
   viewBox="0 0 8.4666665 8.4666665"
   version="1.1"
   id="svg1"
   inkscape:version="1.4.2 (1:1.4.2+202505120738+ebf0e940d0)"
   sodipodi:docname="telescope-icon.svg"
   inkscape:export-filename="telescope-icon.png"
   inkscape:export-xdpi="192"
   inkscape:export-ydpi="192"
   xmlns:inkscape="http://www.inkscape.org/namespaces/inkscape"
   xmlns:sodipodi="http://sodipodi.sourceforge.net/DTD/sodipodi-0.dtd"
   xmlns:xlink="http://www.w3.org/1999/xlink"
   xmlns="http://www.w3.org/2000/svg"
   xmlns:svg="http://www.w3.org/2000/svg">
  <sodipodi:namedview
     id="namedview1"
     pagecolor="#ffffff"
     bordercolor="#666666"
     borderopacity="1.0"
     inkscape:showpageshadow="2"
     inkscape:pageopacity="0.0"
     inkscape:pagecheckerboard="true"
     inkscape:deskcolor="#d1d1d1"
     inkscape:document-units="mm"
     inkscape:zoom="11.313709"
     inkscape:cx="21.08062"
     inkscape:cy="24.130018"
     inkscape:window-width="1920"
     inkscape:window-height="1147"
     inkscape:window-x="0"
     inkscape:window-y="25"
     inkscape:window-maximized="1"
     inkscape:current-layer="layer1" />
  <defs
     id="defs1">
    <linearGradient
       id="linearGradient2"
       inkscape:collect="always">
      <stop
         style="stop-color:#0000ff;stop-opacity:1;"
         offset="0"
         id="stop2" />
      <stop
         style="stop-color:#ffffff;stop-opacity:1;"
         offset="1"
         id="stop3" />
    </linearGradient>
    <linearGradient
       inkscape:collect="always"
       xlink:href="#linearGradient2"
       id="linearGradient3"
       x1="-1.1926903"
       y1="-0.90849292"
       x2="9.527626"
       y2="9.7492466"
       gradientUnits="userSpaceOnUse" />
  </defs>
  <g
     inkscape:label="Calque 1"
     inkscape:groupmode="layer"
     id="layer1">
    <rect
       style="fill:url(#linearGradient3);fill-opacity:1;stroke:none;stroke-width:0.0600001;stroke-linecap:round;stroke-linejoin:round;stroke-dasharray:none;stroke-opacity:1"
       id="rect2"
       width="8.4657621"
       height="8.4423761"
       x="0"
       y="0.023386084" />
    <path
       id="path1"
       style="fill:#ffffff;stroke:#000000;stroke-width:0.06;stroke-linecap:round;stroke-linejoin:round;stroke-dasharray:none"
       d="M 3.3767029,6.1715121 A 0.10342821,0.10245766 0 0 1 3.2732747,6.2739698 0.10342821,0.10245766 0 0 1 3.1698465,6.1715121 0.10342821,0.10245766 0 0 1 3.2732747,6.0690545 0.10342821,0.10245766 0 0 1 3.3767029,6.1715121 Z M 3.0984918,4.3132058 4.055984,5.1106727 3.8409551,5.3453785 2.8834629,4.5479116 Z M 1.9880088,1.0340006 C 1.9124524,1.1562528 1.7173005,1.49915 1.7049249,1.5314008 c -0.010288,0.026815 -0.017666,0.029145 -0.035376,0.011178 -0.017598,-0.017848 -0.016488,-0.027338 0.0052,-0.044437 0.060039,-0.047338 0.025908,-0.1073729 -0.1048727,-0.1844673 -0.014026,-0.00827 -0.062894,0.038621 -0.1332775,0.1278842 -0.061121,0.077518 -0.1111299,0.1476788 -0.1111299,0.1559154 -6e-7,0.00824 0.013633,0.022603 0.030297,0.031928 0.027,0.015109 0.024845,0.024102 -0.019801,0.082636 l -0.050097,0.06568 C 1.4364993,1.8784746 1.9520751,2.2367535 1.9818256,2.2557822 2.0591736,2.1455765 2.0896275,2.1234641 2.129946,2.1450426 c 0.034229,0.018319 0.044589,0.013456 0.082918,-0.038915 0.1135869,-0.1552002 0.1604418,-0.2244792 0.1604421,-0.2372272 -1.7e-6,-0.00763 -0.038163,-0.040135 -0.084805,-0.072225 -0.058621,-0.040332 -0.088873,-0.051764 -0.097981,-0.037027 -0.014803,0.023953 -0.074579,0.00765 -0.074579,-0.020326 0,-0.00994 0.060164,-0.1197997 0.1337001,-0.2441156 0,0 0.1991121,-0.3548754 0.1336988,-0.2260309 C 2.1951573,1.3645855 1.9952766,1.1790975 1.9880084,1.0340004 Z M 1.6484132,2.0048995 1.3105093,1.7736059 l 0.03851,-0.052088 c 0.044785,-0.060575 0.061815,-0.063713 0.1098554,-0.020236 0.033747,0.030541 0.037287,0.029292 0.085987,-0.030378 0.027933,-0.034227 0.059216,-0.057023 0.069515,-0.050657 0.0103,0.00636 0.023147,0.050789 0.028548,0.098719 0.00758,0.067306 0.022856,0.09879 0.067069,0.1382959 0.05156,0.046068 0.070609,0.051149 0.1917664,0.051149 0.073987,0 0.1397911,0.00527 0.1462322,0.011712 0.00644,0.00644 -0.00615,0.036793 -0.027974,0.067447 l -0.039687,0.055734 0.04023,0.026711 c 0.051986,0.034518 0.012269,0.084827 -0.04872,0.1547626 -0.074247,-0.047902 -0.2274786,-0.1490194 -0.32343,-0.2198791 z m 0.3356942,0.1664753 c -0.00592,-0.00958 -0.018248,-0.01362 -0.027825,-0.0077 -0.00958,0.00592 -0.00942,0.017194 -0.0035,0.026773 0.00592,0.00958 0.014743,0.00942 0.02432,0.00349 0.00925,-0.0045 0.011949,-0.015359 0.00701,-0.022566 z M 1.3888377,1.7597754 c -0.00592,-0.00958 -0.018598,-0.01257 -0.028175,-0.00665 -0.00958,0.00592 -0.012571,0.018597 -0.00665,0.028175 0.028486,0.019751 0.032832,-9.493e-4 0.034831,-0.021529 z m 0.704126,0.336963 c -0.037915,-0.025431 -0.068937,-0.053022 -0.068936,-0.061316 1e-7,-0.033685 0.1690469,-0.2556937 0.1946963,-0.2556937 0.00729,-4e-7 0.040697,0.020944 0.074257,0.046541 l 0.061017,0.04654 -0.093953,0.1326961 c -0.051673,0.072983 -0.094897,0.1337697 -0.096049,0.1350821 -0.00119,0.00132 -0.033116,-0.018419 -0.071031,-0.043849 z M 1.7520586,1.8707701 C 1.680309,1.8419748 1.629665,1.6665296 1.6732354,1.5977121 c 0.012395,-0.019576 0.025135,-0.00854 0.05308,0.045958 0.063945,0.1247242 0.1206587,0.1637781 0.2361744,0.1626364 0.065087,-5.932e-4 0.106445,-0.010003 0.1165719,-0.026392 0.012698,-0.020546 0.02102,-0.020977 0.043579,-0.00225 0.041776,0.03467 0.018101,0.080329 -0.028673,0.055297 -0.02979,-0.015944 -0.041731,-0.012425 -0.063546,0.018719 -0.022086,0.031534 -0.04547,0.038145 -0.1315226,0.037187 -0.057564,-5.934e-4 -0.1236419,-0.00878 -0.1468397,-0.018093 z M 1.4134418,1.6395403 1.345597,1.5912688 1.4412351,1.4659134 c 0.052601,-0.068946 0.1031296,-0.1258111 0.1122862,-0.1263672 0.00916,-5.939e-4 0.043962,0.019821 0.077345,0.045284 l 0.060697,0.046295 -0.040579,0.059479 C 1.5803432,1.594145 1.5053575,1.6878144 1.4931101,1.6878145 c -0.0065,2e-7 -0.042353,-0.021723 -0.079668,-0.048273 z m 0.577345,-0.1543904 c -0.035166,-0.02144 -0.075295,-0.069423 -0.095152,-0.1137737 -0.031801,-0.07103 -0.03219,-0.080847 -0.00528,-0.1328979 0.034357,-0.066447 0.335572,-0.56420164 0.3545489,-0.58588895 0.0072,-0.008227 0.030439,0.0144472 0.051643,0.0503874 0.054202,0.0918646 0.1414595,0.14206353 0.2353617,0.13540163 l 0.07588,-0.005387 -0.053082,0.0919156 C 2.5255111,0.97546032 2.4375944,1.1303884 2.359336,1.2691898 l -0.142289,0.2523663 -0.082724,3.56e-4 C 2.0832224,1.5221495 2.0283504,1.508071 1.9907846,1.4851674 Z M 2.419264,0.79519645 C 2.3397215,0.75426289 2.3006519,0.6957909 2.3001824,0.61699343 c -3.56e-4,-0.0663599 0.00196,-0.0689361 0.062737,-0.0689347 0.128627,-6e-8 0.2380423,0.0720249 0.259783,0.17100825 0.021259,0.0967928 -0.085589,0.13677826 -0.2034372,0.0761309 z m 0.1268447,-0.0927214 c 0.014369,-0.0374472 -0.053536,-0.0992682 -0.109038,-0.0992679 -0.087154,-7e-8 -0.07372,0.0940906 0.018322,0.12832203 0.04524,0.0168256 0.077015,0.006645 0.090716,-0.0290539 z M 6.8528561,7.384359 C 6.7835623,7.3440635 4.3127288,5.3431225 4.3127291,5.3273036 c 7e-7,-0.00909 0.2842583,-0.3473712 0.6316848,-0.7517275 L 5.5760993,3.8403839 6.0933628,4.2574636 C 6.3778558,4.4868569 6.937385,4.9376852 7.336759,5.2593008 7.7361339,5.5809172 8.0732143,5.8586796 8.0858285,5.8765516 8.1050291,5.9037548 8.0969837,5.939269 8.0364308,6.09465 7.8228718,6.6426434 7.5800018,6.9446091 7.0749653,7.2900747 6.9825814,7.3532658 6.9023568,7.4047166 6.8966851,7.4044098 6.8910159,7.4041755 6.8712895,7.3950826 6.8528561,7.384359 Z M 3.1618761,4.7795508 3.0246261,4.6660261 2.887378,4.5525029 2.9424657,4.4829515 2.997554,4.4133996 2.8976772,4.3337015 c -0.083076,-0.066291 -0.096257,-0.084484 -0.078348,-0.1081421 0.011841,-0.015645 0.023485,-0.031513 0.025885,-0.035255 0.00244,-0.00371 0.038953,0.020593 0.081241,0.054086 l 0.076889,0.060895 0.046444,-0.054081 c 1.0034484,-1.168586 1.2433933,-1.4400403 1.2610666,-1.4266675 0.011139,0.00843 0.2541322,0.2033276 0.5399781,0.4331059 0.338631,0.2722079 0.5150214,0.4253981 0.5062289,0.4396468 -0.011128,0.018043 -1.1215337,1.3056014 -1.2438438,1.4422921 l -0.03726,0.041722 0.063252,0.053437 c 0.059025,0.049854 0.061222,0.055516 0.032841,0.084581 -0.028525,0.029205 -0.035837,0.027009 -0.1175385,-0.035376 -0.047918,-0.036588 -0.093643,-0.066522 -0.1016114,-0.066522 -0.00797,-1e-7 -0.032158,0.024818 -0.053757,0.055149 -0.0216,0.030333 -0.047265,0.055152 -0.057039,0.055152 -0.00978,1.6e-6 -0.084012,-0.054802 -0.1649705,-0.1217811 C 3.5961776,5.1389625 3.5270614,5.0872626 3.5235464,5.0910501 Z m 1.0241817,0.4671329 c -0.050393,-0.043143 -0.066891,-0.068728 -0.055842,-0.086629 0.013988,-0.022655 1.1636922,-1.3562641 1.2385303,-1.4366363 0.028782,-0.030889 0.034056,-0.029574 0.1075514,0.026914 0.042513,0.032673 0.077297,0.064532 0.077295,0.070803 -6e-7,0.017574 -1.2687634,1.4882442 -1.2832485,1.4874626 -0.00702,-3.54e-4 -0.044949,-0.02824 -0.084287,-0.061914 z M 2.9021933,4.1967024 2.8336275,4.1329505 3.4790067,3.3890284 4.1243871,2.6451048 l 0.080249,0.065757 0.080249,0.065757 -0.048324,0.057642 C 3.860398,3.2829366 3.0061467,4.261328 2.9908905,4.2609511 2.9798209,4.2607157 2.9399064,4.2317651 2.9021951,4.1967021 Z M 1.5920233,3.1510401 C 0.74315083,2.4662233 0.37695142,2.160079 0.372798,2.131764 0.35924404,2.0393639 0.67927801,1.511322 0.92980503,1.2127253 1.1208915,0.98497566 1.5112559,0.63997229 1.5778637,0.63997233 c 0.015674,-4.1e-7 0.1223913,0.0756754 0.2371488,0.1681674 l 0.7695991,0.62222757 0.2012716,0.1611866 0.056713,-0.043257 0.056713,-0.043257 0.03999,0.039993 0.4410563,0.3663554 0.051105,0.053344 c 0.050063,0.052253 0.050411,0.054114 0.01703,0.090999 -0.04131,0.045617 -0.071759,0.014351 0.3219362,0.3305496 0.1668286,0.1339886 0.3056174,0.2494799 0.3084242,0.256646 0.00368,0.00941 -1.165872,1.3765008 -1.2615222,1.474594 -0.00656,0.00681 -0.5579954,-0.4281387 -1.2253043,-0.9664806 z m 1.2081193,4.7236597 c 0.010891,-0.020748 0.042923,-0.071618 0.071184,-0.113048 l 0.051384,-0.075326 -0.077083,-0.073473 C 2.7723129,7.5429726 2.7649479,7.5401782 2.6950107,7.5557101 2.6288946,7.570393 2.6103558,7.5886243 2.5111794,7.7365022 2.4470936,7.8320585 2.3912465,7.897429 2.3778856,7.8925215 2.34006,7.8786325 2.1909637,7.7645885 2.1901901,7.7489529 2.1897969,7.7409771 2.2388396,7.6610422 2.2991768,7.5713094 2.3908947,7.4349047 2.4187715,7.4061649 2.469222,7.3960037 c 0.1326479,-0.026722 0.1323352,-0.026471 0.089488,-0.072079 -0.034703,-0.03694 -0.038338,-0.062922 -0.038339,-0.27401 l 2e-7,-0.2331994 0.1921459,-3e-7 0.1921469,5e-7 0.00653,-0.1148957 0.036864,-0.4825636 -0.02679,0.4825672 0.00355,0.1148999 0.5799253,-5.929e-4 c 0.3189585,-2.376e-4 0.5878118,0.00432 0.5974524,0.010276 0.010209,0.00632 0.017529,0.1709172 0.017528,0.3941783 l 2e-7,0.3833455 0.070667,0.011939 c 0.057287,0.00968 0.076429,0.024025 0.1011069,0.075773 0.016741,0.035108 0.030441,0.067689 0.03044,0.072401 -4.5e-6,0.00471 -0.031833,0.00857 -0.070741,0.00857 -0.064748,0 -0.073549,-0.00623 -0.1038993,-0.073534 -0.018757,-0.041597 -0.045917,-0.073425 -0.062536,-0.073286 -0.016155,1.215e-4 -0.074875,0.066057 -0.1304908,0.1464851 L 3.8531585,7.9185181 3.3167529,7.9154566 C 2.7821089,7.9123955 2.7804187,7.9122646 2.8001568,7.874672 Z M 1.3714238,7.8659182 C 1.3410912,7.8465263 1.204597,7.7369476 1.0681015,7.62241 0.75256601,7.3576337 0.75474553,7.3667532 0.94982851,7.1274983 1.0273765,7.0323961 1.1001849,6.9485034 1.1116341,6.9410775 c 0.045188,-0.029325 0.1164727,-0.010739 0.193443,0.050451 0.044394,0.03529 0.087472,0.064163 0.095728,0.064164 0.00826,2.8e-6 0.038116,-0.028953 0.066345,-0.064345 0.062904,-0.078838 0.1107771,-0.081465 0.1793931,-0.00985 0.028715,0.029974 0.059418,0.050043 0.068235,0.044592 0.00882,-0.00545 0.014511,-0.00308 0.012652,0.00524 -0.00186,0.00833 0.0028,0.029215 0.010348,0.046399 0.00944,0.021497 -0.00452,0.053939 -0.044747,0.1039979 l -0.058471,0.072753 0.09591,0.092445 c 0.083058,0.080057 0.094241,0.0991 0.083448,0.1421007 -0.01435,0.057176 -0.2533834,0.3553271 -0.3115802,0.3886426 -0.052978,0.030326 -0.06706,0.029061 -0.1309196,-0.01176 z M 6.8528554,7.3843597 C 6.7835626,7.3440649 4.312729,5.343124 4.3127285,5.3273043 c 7e-7,-0.00909 0.2842589,-0.3473719 0.6316854,-0.7517282 L 5.5760993,3.8403839 6.0933628,4.2574636 c 0.284493,0.2293933 0.8440222,0.6802216 1.2433962,1.0018372 0.3993749,0.3216164 0.7364562,0.5993796 0.7490695,0.6172508 0.019201,0.027203 0.011155,0.062717 -0.049398,0.2180984 -0.213559,0.5479934 -0.456429,0.8499591 -0.9614655,1.1954247 -0.092384,0.063191 -0.1726085,0.1146419 -0.1782802,0.1143351 -0.00567,-2.343e-4 -0.025396,-0.00933 -0.04383,-0.02005 z M 6.9645916,7.2624988 c 0.00495,-0.015051 -0.011987,-0.022979 -0.049113,-0.022978 -0.054616,-1e-7 -0.070965,0.016355 -0.043655,0.043667 0.019746,0.019745 0.08418,0.00538 0.092764,-0.020692 z M 7.5540678,6.7926349 c 0.00946,-0.049113 -0.031927,-0.092015 -0.063491,-0.065819 -0.026819,0.022254 -0.033545,0.075356 -0.012245,0.096655 0.022387,0.022386 0.069153,0.00335 0.075736,-0.030836 z M 7.9880702,6.0137765 c 0.00669,-0.017447 -4.75e-4,-0.043106 -0.016417,-0.059088 -0.025411,-0.025413 -0.031087,-0.025413 -0.0565,0 -0.034511,0.03451 -0.017102,0.089927 0.028251,0.089927 0.018058,-2e-7 0.038158,-0.013877 0.044667,-0.030839 z m -6.3133237,0.812123 c 0.012599,-0.015155 0.027018,-0.027577 0.032078,-0.027573 0.00505,-3.2e-6 -0.0011,0.012412 -0.01369,0.027577 -0.012599,0.015156 -0.027018,0.027577 -0.032078,0.027573 -0.00505,3.2e-6 0.00111,-0.012404 0.01369,-0.027577 z M 4.0892204,6.7308127 C 4.0301581,6.6835712 3.9714919,6.6370608 3.9588533,6.6274555 c -0.015122,-0.011499 -0.033813,-0.00884 -0.054665,0.00776 -0.017426,0.013879 0.00897,-0.022337 0.05866,-0.08047 0.049692,-0.058134 0.094185,-0.1056994 0.09888,-0.1056995 0.0047,-2.3e-6 -0.00525,0.015245 -0.022124,0.03387 -0.029135,0.032152 -0.024917,0.03841 0.083444,0.124086 0.062755,0.049618 0.12686,0.099807 0.1424565,0.1115318 0.025253,0.018984 0.024549,0.025527 -0.00642,0.059746 -0.019169,0.021099 -0.041008,0.038426 -0.048627,0.038425 -0.00762,-9e-7 -0.062174,-0.038654 -0.1212377,-0.085896 z m 0.6201572,0.01992 c -0.031111,-0.026174 -0.05656,-0.064068 -0.056561,-0.084206 3e-7,-0.068157 0.1924941,-0.3277814 0.2430271,-0.3277818 0.013307,4e-6 0.05506,0.020979 0.092795,0.046622 0.048916,0.033239 0.068608,0.059994 0.068608,0.093217 10e-8,0.041895 -0.1446954,0.2717801 -0.1923969,0.3056716 -0.037541,0.026675 -0.099914,0.013225 -0.1554725,-0.033523 z M 3.6721434,6.393895 C 3.6484407,6.1178733 3.6302961,5.989769 3.6119944,5.9691877 3.5975793,5.9529814 3.5438002,5.9168674 3.4924846,5.8889383 3.33543,5.8034578 3.173464,5.8256101 3.0291672,5.9523042 c -0.06605,0.057986 -0.067675,0.062585 -0.070812,0.1999185 -0.00182,0.079286 -0.0063,0.1085087 -0.0103,0.067033 -0.00623,-0.064594 -0.018394,-0.081259 -0.1001069,-0.1370866 l -0.093024,-0.063553 -0.048337,0.054919 c -0.026564,0.030223 -0.082214,0.095439 -0.1236171,0.1449658 l -0.07528,0.090047 -0.062595,-0.044384 C 2.3879824,6.2236671 2.3279849,6.1755496 2.2743507,6.127228 c -0.01129,-0.010174 -0.046097,-0.03955 -0.077342,-0.06528 L 2.1401973,6.0151716 2.4451789,5.6459474 C 2.6129194,5.4428751 2.8427978,5.1648616 2.9560209,5.0281403 L 3.1618808,4.7795579 3.0246308,4.6660332 2.8873809,4.5525085 l 0.055088,-0.069551 0.055088,-0.069552 -0.099878,-0.079698 c -0.083076,-0.066291 -0.096255,-0.084484 -0.078348,-0.1081421 0.011842,-0.015645 0.023495,-0.031505 0.025885,-0.035255 0.00244,-0.00371 0.038955,0.020593 0.081242,0.054085 l 0.076889,0.060896 0.046444,-0.054081 C 4.0532389,3.0826247 4.2931844,2.8111698 4.3108577,2.8245426 c 0.011139,0.00843 0.2541322,0.2033276 0.539978,0.4331059 0.3386311,0.2722079 0.5150215,0.4253981 0.506229,0.4396469 C 5.3459362,3.7153379 4.235531,5.0028967 4.1132203,5.139588 l -0.03726,0.041723 0.063252,0.053437 c 0.059025,0.049854 0.061222,0.055516 0.032842,0.084581 -0.028525,0.029205 -0.035837,0.027009 -0.1175384,-0.035376 -0.047918,-0.036588 -0.093643,-0.066523 -0.1016117,-0.066524 -0.00797,0 -0.032158,0.024818 -0.053757,0.05515 -0.0216,0.030332 -0.047265,0.055152 -0.057039,0.055152 -0.00978,1.6e-6 -0.084011,-0.054802 -0.1649705,-0.1217811 C 3.5961791,5.1389697 3.5270636,5.087269 3.5235486,5.0910548 3.5069748,5.1089697 3.2957203,5.3649687 3.2494178,5.4233254 3.2020741,5.4830028 3.1905023,5.488334 3.1267291,5.4797736 2.986683,5.4609901 2.9066586,5.6237309 3.0067324,5.7238035 c 0.052601,0.052602 0.1208545,0.057748 0.1938676,0.014618 0.050265,-0.029692 0.053524,-0.029037 0.122327,0.024615 0.038879,0.030316 0.114802,0.07882 0.1687181,0.1077871 0.053918,0.028966 0.1166764,0.074823 0.139463,0.101904 0.022787,0.02708 0.1296434,0.1132102 0.2374607,0.1913984 0.1078166,0.078189 0.1960305,0.1489156 0.19603,0.1571666 2e-7,0.00825 -0.066179,0.093714 -0.1470636,0.1899156 -0.080887,0.096202 -0.1470667,0.1846391 -0.1470664,0.1965285 2.3e-6,0.016491 -0.00623,0.016451 -0.026243,-1.186e-4 -0.021551,-0.017886 -0.027303,-0.012537 -0.032169,0.029919 -0.00326,0.028437 -0.021202,-0.1261551 -0.039869,-0.3435363 z M 1.9688769,6.7156001 c 0.012599,-0.015155 0.027017,-0.027577 0.032078,-0.027573 0.00505,-3.2e-6 -0.0011,0.012412 -0.01369,0.027577 -0.012599,0.015156 -0.027018,0.027578 -0.032078,0.027574 -0.00505,3.2e-6 0.0011,-0.012412 0.013691,-0.027578 z m 1.8566986,1e-7 c 0.012599,-0.015155 0.027018,-0.027577 0.032078,-0.027573 0.00506,4.5e-6 -0.00107,0.012411 -0.01369,0.027577 -0.012599,0.015156 -0.027018,0.027578 -0.032079,0.027574 -0.00505,3.2e-6 0.00107,-0.012411 0.013691,-0.027578 z M 1.7850447,6.6972173 c 0.012599,-0.015156 0.027018,-0.027578 0.032078,-0.027574 0.00506,4.4e-6 -0.0011,0.012412 -0.013691,0.027577 -0.012599,0.015156 -0.027017,0.027577 -0.032078,0.027573 -0.00505,3.1e-6 0.0011,-0.012412 0.01369,-0.027577 z m 0.2757476,-0.091915 c 0.012599,-0.015156 0.027018,-0.027578 0.032078,-0.027574 0.00506,4.4e-6 -0.0011,0.012412 -0.013691,0.027578 -0.012599,0.015155 -0.027018,0.027577 -0.032078,0.027573 -0.00506,-4.4e-6 0.0011,-0.012412 0.01369,-0.027577 z M 1.8769608,6.5869183 c 0.012599,-0.015156 0.027017,-0.027577 0.032078,-0.027573 0.00505,-3.2e-6 -0.00111,0.012404 -0.01369,0.027577 -0.012599,0.015156 -0.027017,0.027577 -0.032078,0.027573 -0.00506,-4.4e-6 0.0011,-0.012412 0.01369,-0.027577 z m 0.2757476,-0.091915 c 0.012599,-0.015156 0.027018,-0.027578 0.032078,-0.027574 0.00505,-3.2e-6 -0.0011,0.012412 -0.013691,0.027578 -0.012599,0.015155 -0.027017,0.027577 -0.032078,0.027573 -0.00505,3.2e-6 0.0011,-0.012412 0.01369,-0.027577 z M 1.9872596,6.4582353 c 0.012599,-0.015155 0.027018,-0.027577 0.032078,-0.027573 0.00505,-3.1e-6 -0.00111,0.012405 -0.01369,0.027577 -0.012599,0.015156 -0.027018,0.027578 -0.032078,0.027574 -0.00505,3.2e-6 0.0011,-0.012412 0.013691,-0.027577 z m 0.2573649,-0.073532 c 0.012599,-0.015155 0.027018,-0.027578 0.032078,-0.027574 0.00505,-3.2e-6 -0.0011,0.012413 -0.013691,0.027577 -0.012599,0.015156 -0.027018,0.027577 -0.032078,0.027573 -0.00505,3.2e-6 0.00111,-0.012404 0.01369,-0.027577 z m 1.8516651,0.00783 c 0.017279,-0.022177 0.017496,-0.033977 9.495e-4,-0.050554 -0.011893,-0.011893 -0.016845,-0.021622 -0.011,-0.021622 0.00584,-1.1e-6 0.020004,0.011308 0.031477,0.025137 0.016008,0.019288 0.013325,0.031048 -0.011534,0.050552 -0.02863,0.022459 -0.029771,0.022055 -0.00986,-0.00352 z M 2.0883671,6.3387514 c 0.018337,-0.020191 0.037411,-0.036764 0.042463,-0.036768 0.00505,-3.2e-6 -0.00578,0.016542 -0.024084,0.036764 -0.018337,0.020191 -0.037412,0.036764 -0.042463,0.036768 -0.00505,3.1e-6 0.00578,-0.016543 0.024085,-0.036764 z m 0.2481731,-0.064341 c 0.012599,-0.015156 0.027018,-0.027577 0.032078,-0.027573 0.00505,-3.1e-6 -0.0011,0.012413 -0.01369,0.027577 -0.012599,0.015156 -0.027018,0.027578 -0.032078,0.027574 -0.00506,-4.4e-6 0.0011,-0.012412 0.013691,-0.027577 z m -0.147066,-0.055155 c 0.012599,-0.015156 0.027018,-0.027578 0.032078,-0.027574 0.00506,4.5e-6 -0.0011,0.012413 -0.013691,0.027578 -0.012599,0.015155 -0.027018,0.027577 -0.032078,0.027573 -0.00505,3.2e-6 0.00111,-0.012405 0.01369,-0.027577 z M 3.0250726,5.7053624 c -0.053827,-0.053828 -0.0572,-0.1013394 -0.011227,-0.1581207 0.040568,-0.050088 0.1370218,-0.056527 0.1814456,-0.012102 0.044423,0.044422 0.037989,0.1408799 -0.012104,0.1814436 -0.056783,0.045977 -0.1042925,0.042607 -0.1581202,-0.011226 z m 1.1609845,-0.458678 c -0.050391,-0.043142 -0.06689,-0.068727 -0.055841,-0.086629 0.013988,-0.022656 1.1636918,-1.3562655 1.2385299,-1.4366377 0.028782,-0.030889 0.034056,-0.029574 0.1075514,0.026914 0.042513,0.032673 0.077297,0.064532 0.077295,0.070803 -6e-7,0.017574 -1.2687631,1.4882457 -1.2832485,1.4874626 -0.00702,-3.54e-4 -0.044949,-0.02824 -0.084287,-0.061914 z M 2.9021919,4.1967021 2.8336262,4.1329503 3.4790068,3.3890283 4.1243872,2.6451047 l 0.080249,0.065757 0.080249,0.065757 -0.048325,0.057642 C 3.8603981,3.2829366 3.0061468,4.2613279 2.9908906,4.260951 2.979821,4.2607156 2.9399065,4.231765 2.9021943,4.1967012 Z M 1.5920216,3.1510384 C 0.74314988,2.4662233 0.37695022,2.1600791 0.37279653,2.131764 0.35924275,2.0393639 0.67927672,1.511322 0.92980443,1.2127253 1.1208902,0.98497567 1.511255,0.63997227 1.5778631,0.63997229 c 0.015674,-4.1e-7 0.1223912,0.0756755 0.2371492,0.16816745 L 2.0236636,0.97630724 1.9880076,1.034 C 1.9124513,1.1562528 1.7173,1.4991491 1.7049239,1.5314006 c -0.010289,0.026814 -0.017666,0.029146 -0.035376,0.011183 -0.017598,-0.017848 -0.016488,-0.027338 0.0052,-0.044436 0.060039,-0.047338 0.025909,-0.1073731 -0.1048721,-0.184468 -0.014027,-0.00827 -0.062894,0.038621 -0.1332778,0.1278846 -0.061121,0.077518 -0.1111302,0.1476786 -0.1111302,0.1559146 -6e-7,0.00824 0.013634,0.022604 0.030297,0.031928 0.026999,0.01511 0.024845,0.024102 -0.0198,0.082635 l -0.050097,0.06568 0.2449939,0.1806377 c 0.4782728,0.3526381 0.4371365,0.3271426 0.4646327,0.2879655 0.077348,-0.1102062 0.09414,-0.122854 0.1344543,-0.1012782 0.034228,0.018318 0.044589,0.013455 0.082917,-0.038915 C 2.326451,1.9509311 2.373306,1.8816521 2.3733059,1.8689044 c -1e-7,-0.00763 -0.038162,-0.040134 -0.084804,-0.072225 -0.05862,-0.040333 -0.088873,-0.051764 -0.097981,-0.037027 -0.014803,0.023952 -0.074578,0.00766 -0.074578,-0.020326 -3e-7,-0.00995 0.060165,-0.1197989 0.1336997,-0.2441157 L 2.3833415,1.2691791 2.5846118,1.4303662 2.7858827,1.5915537 2.8425952,1.5482969 2.8993076,1.50504 2.9392988,1.5450316 2.97929,1.5850231 3.03477,1.531871 C 3.065283,1.5026367 3.0902451,1.4725478 3.09025,1.4650149 3.0902458,1.4574743 2.9912954,1.374233 2.8703519,1.2800265 2.749407,1.1858203 2.6501369,1.0958909 2.6497534,1.0801812 2.6481277,1.0138231 2.7489587,0.85511094 2.836899,0.7855979 c 0.050162,-0.0396515 0.101918,-0.0720936 0.1150127,-0.0720936 0.013095,3e-7 0.2150258,0.15316395 0.4487368,0.34036432 0.3251879,0.2604731 0.4249681,0.3500082 0.4250993,0.3814511 1.179e-4,0.031308 0.087621,0.1107576 0.3676625,0.3338654 0.2415028,0.1924032 0.3674925,0.3045233 0.3674929,0.3270336 -1e-7,0.069584 -0.073314,0.1789955 -0.1441569,0.2151372 l -0.07013,0.035777 -0.3570316,-0.285824 C 3.7932175,1.9041072 3.6228605,1.7716677 3.6110114,1.7669998 c -0.011843,-0.00467 -0.038232,4.39e-4 -0.05863,0.011362 -0.024517,0.013127 -0.040946,0.013603 -0.048479,0.00142 -0.020171,-0.032639 -0.038328,-0.020015 -0.081382,0.056589 l -0.042163,0.075021 0.051105,0.053344 c 0.050063,0.052253 0.050411,0.054114 0.01703,0.090999 -0.04131,0.045617 -0.071759,0.014351 0.3219362,0.3305495 0.1668286,0.1339887 0.3056174,0.24948 0.3084242,0.2566461 0.00368,0.00941 -1.1658731,1.376502 -1.2615237,1.4745938 -0.00656,0.00681 -0.5579953,-0.4281389 -1.225304,-0.9664809 z M 0.51335917,2.122889 c 0.003517,-0.01814 -0.00586,-0.030647 -0.0229787,-0.030648 -0.0170527,0 -0.0289227,0.015718 -0.0289225,0.038298 -6e-8,0.044801 0.0429572,0.038468 0.0519016,-0.00765 z M 3.3752562,1.8047868 3.411262,1.7379306 3.310742,1.6493066 C 3.15988,1.5162968 3.1364384,1.5071022 3.0809906,1.5591927 c -0.025243,0.02371 -0.045906,0.049054 -0.045895,0.056341 -3.2e-6,0.013953 0.2780474,0.2555091 0.2945456,0.2558867 0.00528,1.169e-4 0.025778,-0.029892 0.045615,-0.066634 z M 0.95577868,1.4053124 c 0.0158925,-0.019149 0.014054,-0.030785 -0.00772,-0.048855 -0.0351359,-0.02916 -0.074344,0.00159 -0.057615,0.045181 0.0136163,0.035484 0.0378059,0.036845 0.0653348,0.00368 z M 1.6195967,0.73188801 c -2e-7,-0.0101103 -0.016545,-0.018383 -0.036767,-0.0183829 -0.020221,10e-9 -0.036766,0.008272 -0.036766,0.0183833 2e-7,0.0101103 0.016545,0.018383 0.036767,0.0183829 0.020222,-2e-8 0.036766,-0.008272 0.036766,-0.0183831 z m 0.0155,1.28142109 -0.324588,-0.2397036 0.03851,-0.052088 c 0.044786,-0.060575 0.061815,-0.063712 0.1098554,-0.020236 0.033747,0.030541 0.037287,0.02929 0.085986,-0.030378 0.027935,-0.034227 0.059217,-0.057022 0.069516,-0.050657 0.010299,0.00637 0.023146,0.050789 0.028548,0.098719 0.00759,0.067306 0.022856,0.098791 0.067069,0.1382957 0.051561,0.046069 0.07061,0.05115 0.1917668,0.05115 0.073986,0 0.1397903,0.00527 0.1462322,0.011712 0.00644,0.00644 -0.00615,0.036793 -0.027974,0.067447 l -0.039687,0.055734 0.04023,0.026711 c 0.051987,0.034518 0.050166,0.055655 -0.010819,0.1255912 l -0.050056,0.057409 z m 0.3420009,0.1692786 c -0.00592,-0.00958 -0.018597,-0.01257 -0.028175,-0.00665 -0.00957,0.00592 -0.01257,0.018598 -0.00665,0.028175 0.00592,0.00958 0.018597,0.01257 0.028174,0.00665 0.00957,-0.00592 0.01257,-0.018598 0.00665,-0.028174 z M 1.3888366,1.7597748 c -0.00592,-0.00958 -0.018597,-0.01257 -0.028174,-0.00665 -0.00958,0.00592 -0.012571,0.018597 -0.00665,0.028174 0.00592,0.00958 0.018597,0.01257 0.028174,0.00665 0.00958,-0.00592 0.01257,-0.018598 0.00665,-0.028175 z m 0.7041265,0.3369625 c -0.037915,-0.02543 -0.068937,-0.053022 -0.068937,-0.061316 0,-0.033685 0.1690477,-0.2556934 0.1946969,-0.2556933 0.00728,-1e-7 0.040696,0.020943 0.074256,0.04654 l 0.061018,0.046541 -0.093954,0.1326952 c -0.051673,0.072984 -0.094896,0.1337695 -0.096049,0.1350819 -0.00115,0.00131 -0.033116,-0.018419 -0.071031,-0.043849 z M 1.7520577,1.870769 C 1.680309,1.8419739 1.6296641,1.6665295 1.6732353,1.5977115 c 0.012394,-0.019577 0.025135,-0.00855 0.053079,0.045958 0.063946,0.1247241 0.1206588,0.163778 0.2361756,0.1626366 0.065086,-6.408e-4 0.1064444,-0.010007 0.1165712,-0.026393 0.012698,-0.020546 0.021021,-0.020976 0.043579,-0.00225 0.041776,0.034671 0.018101,0.080329 -0.028673,0.055297 -0.02979,-0.015943 -0.041731,-0.012426 -0.063546,0.01872 -0.022087,0.031534 -0.04547,0.038145 -0.1315234,0.037187 C 1.8413341,1.8882208 1.7752566,1.8800792 1.752058,1.8707687 Z M 1.4134415,1.6395403 1.3455976,1.5912679 1.4412351,1.4659124 c 0.052601,-0.068946 0.1031294,-0.125811 0.1122854,-0.1263681 0.00916,-5.575e-4 0.043962,0.019821 0.077345,0.045283 l 0.060697,0.046296 -0.040579,0.059477 c -0.070642,0.1035415 -0.145627,0.1972106 -0.1578739,0.1972107 -0.0065,10e-8 -0.042354,-0.021722 -0.079668,-0.048272 z M 1.9907867,1.4851491 C 1.9556202,1.4637087 1.9154913,1.415726 1.895635,1.3713762 1.8638339,1.3003463 1.863444,1.2905288 1.8903568,1.2384781 1.9247132,1.1720311 2.2259281,0.67427589 2.2449052,0.65258915 c 0.0072,-0.008227 0.030438,0.0144479 0.051643,0.0503872 0.054202,0.0918648 0.1414599,0.14206399 0.2353617,0.13540221 l 0.07588,-0.005383 -0.053082,0.0919157 C 2.5255128,0.97546546 2.4375959,1.1303925 2.3593371,1.2691942 L 2.2170488,1.5215607 2.1343245,1.521893 C 2.0832244,1.5221066 2.0283521,1.508052 1.9907862,1.4851487 Z M 2.419264,0.79519645 c -0.079543,-0.040934 -0.1186125,-0.0994059 -0.1190817,-0.17820326 -3.915e-4,-0.0663601 0.00195,-0.0689369 0.062738,-0.068935 0.1286264,-3e-8 0.2380419,0.0720259 0.2597822,0.1710092 0.021259,0.0967923 -0.085588,0.13677732 -0.203436,0.0761309 z m 0.1268439,-0.0927216 c 0.01437,-0.0374472 -0.053536,-0.099269 -0.1090375,-0.0992691 -0.087153,0 -0.073719,0.0940917 0.018322,0.12832294 0.04524,0.0168253 0.077015,0.006649 0.090716,-0.0290539 z M 1.4305368,7.1050918 2.5189421,5.8237449 2.667854,5.9502343 1.5794478,7.2315805 Z M 2.9248129,6.8167227 c 0,0 0.026778,-0.7630708 0.045494,-0.7945972 0.01871,-0.031529 0.106511,-0.1106251 0.1373531,-0.1274533 0.030837,-0.016831 0.047862,-0.024794 0.047862,-0.024794 0,0 0.2210299,-0.04437 0.3082036,0.00463 0.087174,0.049001 0.167335,0.098158 0.167335,0.098158 l 0.090282,0.8440623 z" />
    <g
       id="g1"
       transform="matrix(0.11866513,0,0,0.11866513,-4.6472802,-8.2065805)" />
  </g>
</svg>
